<mxfile host="app.diagrams.net" modified="2023-12-07T00:59:32.850Z" agent="Mozilla/5.0 (Windows NT 10.0; Win64; x64) AppleWebKit/537.36 (KHTML, like Gecko) Chrome/119.0.0.0 Safari/537.36" version="22.1.5" etag="g4crwae5xH5DE3Hh9-uj" type="github">
  <diagram name="Halaman-1" id="Nfd60OibfLl_WbxzJVKX">
    <mxGraphModel>
      <root>
        <mxCell id="0" />
        <mxCell id="1" parent="0" />
      </root>
    </mxGraphModel>
  </diagram>
</mxfile>
